<svg xmlns="http://www.w3.org/2000/svg" width="46" height="65" fill="none" viewBox="0 0 46 65">
  <path fill="#fff" stroke="#4F4F4F" stroke-width="1.5" d="M.75 5.75h40.5v58.5H.75z"/>
  <mask id="a" fill="#fff">
    <rect width="46" height="65" rx="1"/>
  </mask>
  <rect width="46" height="65" fill="#fff" stroke="#4F46E5" stroke-width="3" mask="url(#a)" rx="1"/>
  <path fill="#4F46E5" d="M12.377 57.223c-.086.91-.422 1.62-1.008 2.133-.586.507-1.365.761-2.338.761-.68 0-1.28-.16-1.799-.48-.515-.325-.914-.784-1.195-1.377-.281-.594-.428-1.283-.44-2.069v-.797c0-.804.143-1.513.428-2.126.286-.614.694-1.086 1.225-1.418.535-.332 1.152-.498 1.852-.498.941 0 1.699.255 2.273.767.574.512.908 1.234 1.002 2.168H10.9c-.07-.613-.25-1.055-.539-1.324-.285-.273-.705-.41-1.26-.41-.644 0-1.14.236-1.488.709-.343.468-.52 1.158-.527 2.068v.756c0 .922.164 1.625.492 2.11.332.484.817.726 1.453.726.582 0 1.02-.131 1.313-.393.293-.261.478-.697.556-1.306h1.477zm5.918-.264h1.06v1.143h-1.06V60H16.87v-1.898h-3.685l-.041-.868 3.68-5.765h1.47v5.49zm-3.656 0h2.232v-3.563l-.105.188-2.127 3.375z"/>
  <path fill="#4F4F4F" d="M27.643 18.014h-3.305L23.646 20h-1.54l3.222-8.531h1.33L29.887 20H28.34l-.697-1.986zm-2.89-1.196h2.474L25.99 13.28l-1.236 3.54zm10.694.141h1.06v1.143h-1.06V20h-1.424v-1.898h-3.685l-.041-.868 3.68-5.765h1.47v5.49zm-3.656 0h2.232v-3.563l-.105.188-2.127 3.375z"/>
  <path stroke="#4F4F4F" stroke-dasharray="3 3" stroke-width="1.5" d="M1.5 5.25H42M41.25 6v57.5"/>
  <path fill="#4F46E5" d="M1.61.564a.75.75 0 00-1.22.872L1.61.564zM40.3 7.581l.61.436-.61-.436zm-34.6 0l.611-.436-.61.436zM.39 1.436l4.7 6.581 1.221-.872-4.7-6.58-1.221.87zM6.515 8.75h32.97v-1.5H6.515v1.5zm34.394-.733l4.701-6.581-1.22-.872-4.701 6.581 1.22.872zm-1.424.733a1.75 1.75 0 001.424-.733l-1.22-.872a.25.25 0 01-.204.105v1.5zM5.091 8.017c.328.46.858.733 1.424.733v-1.5a.25.25 0 01-.204-.105l-1.22.872z"/>
</svg>
