<svg xmlns="http://www.w3.org/2000/svg" width="44" height="60" fill="none" viewBox="0 0 44 60">
  <path fill="#fff" stroke="#4F4F4F" stroke-width="1.5" d="M.75.75h40.5v58.5H.75z"/>
  <path fill="#4F4F4F" d="M28.643 13.014h-3.305L24.646 15h-1.54l3.222-8.531h1.33L30.887 15H29.34l-.697-1.986zm-2.89-1.196h2.474L26.99 8.28l-1.236 3.54zm10.694.141h1.06v1.143h-1.06V15h-1.424v-1.898h-3.685l-.041-.868 3.68-5.765h1.47v5.49zm-3.656 0h2.232V8.396l-.105.188-2.127 3.375z"/>
  <mask id="a" fill="#fff">
    <rect width="44" height="22" y="38" rx="1"/>
  </mask>
  <rect width="44" height="22" y="38" fill="#fff" stroke="#4F46E5" stroke-width="3" mask="url(#a)" rx="1"/>
  <path stroke="#4F4F4F" stroke-dasharray="3 3" stroke-width="1.5" d="M41.25 39.5v19"/>
  <path fill="#4F46E5" d="M9.854 51.191H6.35v2.625h4.095V55H4.867v-8.531h5.537v1.195H6.35v2.355h3.504v1.172zm6-4.763v1.178h-.176c-.797.011-1.434.23-1.91.656-.477.425-.76 1.029-.85 1.81.457-.48 1.041-.72 1.752-.72.754 0 1.348.265 1.781.796.438.532.656 1.217.656 2.057 0 .867-.255 1.57-.767 2.11-.508.535-1.176.802-2.004.802-.852 0-1.543-.314-2.074-.943-.528-.63-.791-1.453-.791-2.473v-.486c0-1.496.363-2.668 1.09-3.516.73-.847 1.779-1.271 3.146-1.271h.146zm-1.53 4.072a1.548 1.548 0 00-1.43.967v.433c0 .633.133 1.137.399 1.512.266.371.61.557 1.031.557.422 0 .756-.159 1.002-.475.246-.316.37-.732.37-1.248s-.126-.936-.376-1.26a1.195 1.195 0 00-.996-.486zm4.301.27l.463-4.301h4.582v1.23H20.27l-.234 2.04c.395-.227.84-.34 1.336-.34.813 0 1.443.26 1.893.779.453.52.68 1.219.68 2.097 0 .868-.25 1.559-.75 2.075-.5.511-1.186.767-2.057.767-.782 0-1.43-.22-1.946-.662-.511-.445-.789-1.031-.832-1.758h1.377c.055.414.203.733.446.955.242.22.558.328.949.328.437 0 .777-.156 1.02-.468.245-.313.369-.739.369-1.278 0-.52-.135-.93-.405-1.23-.27-.305-.64-.457-1.113-.457-.258 0-.477.035-.656.105-.18.067-.375.2-.586.399l-1.137-.282zM1.53 38.47a.75.75 0 00-1.06 1.06l1.06-1.06zm36.763 5.237l-.53-.53.53.53zM.47 39.53l4.707 4.707 1.06-1.06L1.53 38.47.47 39.53zm5.944 5.22h31.172v-1.5H6.414v1.5zm32.41-.513l4.706-4.707-1.06-1.06-4.707 4.707 1.06 1.06zm-1.238.513c.464 0 .909-.184 1.237-.513l-1.06-1.06a.25.25 0 01-.177.073v1.5zm-32.41-.513a1.75 1.75 0 001.238.513v-1.5a.25.25 0 01-.177-.073l-1.06 1.06z"/>
</svg>
